# xmcd
#
# Track frame offsets: 
#        150
#        26305
#        42157
#        59452
#        81440
#        100390
#        117805
#        138330
#        158725
#        179500
#        200930
#        225850
#
# Disc length: 3249 seconds
#
# Revision: 1
# Processed by: cddbd v1.5.2PL0 Copyright (c) Steve Scherf et al.
# Submitted via: ExactAudioCopy v0.99pb3
#
DISCID=9c0caf0c
DTITLE=Patricia Kaas - Le Mot De Passe
DYEAR=1999
DGENRE=Chanson
TTITLE0=Ma Liberté Contre La Tienne
TTITLE1=Une Fille De L'est
TTITLE2=Si Tu Rêves
TTITLE3=J'attends De Vous
TTITLE4=Le Mot De Passe
TTITLE5=Les Éternelles
TTITLE6=La Clé
TTITLE7=Mon Chercheur D'or
TTITLE8=Quand Je T'oublie
TTITLE9=Une Femme Comme Une Autre
TTITLE10=Les Chansons Commencent
TTITLE11=Et Je M'en Veux
EXTD=
EXTT0=
EXTT1=
EXTT2=
EXTT3=
EXTT4=
EXTT5=
EXTT6=
EXTT7=
EXTT8=
EXTT9=
EXTT10=
EXTT11=
PLAYORDER=
